# xmcd CD database file
#
# Track frame offsets:
#	150
#	21485
#	42830
#	66955
#
# Disc length: 1212 seconds
#
# Revision: 0
# Processed by: cddbd v1.5PL3 Copyright (c) Steve Scherf et al.
# Submitted via: CDex 1.50beta9
#
DISCID=3204ba04
DTITLE=和田アキ子 - 愛、とどきますか
DYEAR=1992
DGENRE=Blues
TTITLE0=愛、とどきますか
TTITLE1=愛、とどきますか　カラオケ
TTITLE2=出さない手紙
TTITLE3=出さない手紙　カラオケ
EXTD=YEAR: 1992
EXTT0=
EXTT1=
EXTT2=
EXTT3=
PLAYORDER=
